# xmcd CD database file
# Copyright (C) 1993-1996 Ti Kan
#
# Track frame offsets:
#  150
#  9729
#  21665
#  32613
#  43046
#  54919
#  65166
#  77587
#  85751
#  96262
#  112507
#  124032
#  136203
#  146741
#  160751
#  171540
#  179661
#  189946
#  205221
#  214200
#  227491
#  237668
#  250306
#  260706
#  271619
#  282860
#  295478
#
# Disc length: 4061 seconds
#
# Revision: 1
# Processed by: cddbd v1.5.1PL2 Copyright (c) Steve Scherf et al.
# Submitted via: Advanced CD Ripper Pro 2.0
#
DISCID=8e0fdb1b
DTITLE=Brian Wicklund - American Fiddle Method
DYEAR=2003
DGENRE=Country
TTITLE0=Eighth Of January
TTITLE1=Liberty
TTITLE2=St. Anne's Reel
TTITLE3=Spotted Pony
TTITLE4=Cuckoo's Nest
TTITLE5=Old Joe Clark
TTITLE6=Soldier's Joy
TTITLE7=Swallowtail Jig
TTITLE8=June Apple
TTITLE9=Fisher's Hornpipe
TTITLE10=Liza Jane
TTITLE11=Arkansas Traveler
TTITLE12=Devil's Dream
TTITLE13=Westphalia Waltz
TTITLE14=Ragtime Annie
TTITLE15=Golden Anniversary
TTITLE16=Big John Mcneil
TTITLE17=Star Of The County Down
TTITLE18=Benny's Favorite
TTITLE19=Marie Clare
TTITLE20=Bernard The Butterfly
TTITLE21=Flop Eared Mule
TTITLE22=Swampwalk
TTITLE23=Don't Come Home, Johnny
TTITLE24=Forked Deer
TTITLE25=Jolie Blonde
TTITLE26=Big Walleye Blues
EXTD=
EXTT0=
EXTT1=
EXTT2=
EXTT3=
EXTT4=
EXTT5=
EXTT6=
EXTT7=
EXTT8=
EXTT9=
EXTT10=
EXTT11=
EXTT12=
EXTT13=
EXTT14=
EXTT15=
EXTT16=
EXTT17=
EXTT18=
EXTT19=
EXTT20=
EXTT21=
EXTT22=
EXTT23=
EXTT24=
EXTT25=
EXTT26=
PLAYORDER=
